<svg xmlns="http://www.w3.org/2000/svg" width="256" height="256" viewBox="0 0 100 100"><rect width="100" height="100" rx="20" fill="#24bb03"></rect><path d="M31.64 18.41Q39.47 18.41 44.87 21.20Q50.27 23.99 50.27 30.29L50.27 30.29Q50.27 34.25 47.75 36.41Q45.23 38.57 41.18 38.57L41.18 38.57Q38.39 38.57 36.50 37.58L36.50 37.58Q37.13 35.33 37.13 32.36L37.13 32.36Q37.13 28.76 35.56 26.73Q33.98 24.71 30.56 24.71L30.56 24.71Q27.59 24.71 25.84 26.33Q24.08 27.95 24.08 30.92L24.08 30.92Q24.08 33.98 25.70 36.37Q27.32 38.75 29.71 40.46Q32.09 42.17 36.23 44.60L36.23 44.60Q41.09 47.48 44.11 49.73Q47.12 51.98 49.23 55.40Q51.35 58.82 51.35 63.59L51.35 63.59Q51.35 72.50 45.05 77.05Q38.75 81.59 28.67 81.59L28.67 81.59Q20.30 81.59 14.59 78.62Q8.87 75.65 8.87 68.99L8.87 68.99Q8.87 65.03 11.44 62.60Q14.00 60.17 17.96 60.17L17.96 60.17Q20.93 60.17 22.64 61.16L22.64 61.16Q22.01 63.95 22.01 65.93L22.01 65.93Q22.01 75.29 29.75 75.29L29.75 75.29Q33.35 75.29 35.60 73.27Q37.85 71.24 37.85 67.82L37.85 67.82Q37.85 64.76 36.23 62.38Q34.61 59.99 32.18 58.23Q29.75 56.48 25.70 54.05L25.70 54.05Q20.84 51.17 17.83 48.92Q14.81 46.67 12.70 43.25Q10.58 39.83 10.58 35.15L10.58 35.15Q10.58 29.84 13.46 26.06Q16.34 22.28 21.16 20.34Q25.97 18.41 31.64 18.41L31.64 18.41ZM58.46 20.21L91.13 20.21L91.13 27.32L73.40 27.32L73.40 46.76L88.43 46.76L88.43 53.96L73.40 53.96L73.40 79.61L58.46 79.61L58.46 20.21Z" fill="#424242"></path></svg>